<?xml version="1.0" encoding="UTF-8" standalone="no"?>
<svg
   width="32"
   height="32"
   version="1.1"
   id="svg2"
   sodipodi:docname="icon.svg"
   inkscape:version="1.3 (0e150ed6c4, 2023-07-21)"
   xmlns:inkscape="http://www.inkscape.org/namespaces/inkscape"
   xmlns:sodipodi="http://sodipodi.sourceforge.net/DTD/sodipodi-0.dtd"
   xmlns="http://www.w3.org/2000/svg"
   xmlns:svg="http://www.w3.org/2000/svg">
  <sodipodi:namedview
     id="namedview2"
     pagecolor="#ffffff"
     bordercolor="#000000"
     borderopacity="0.25"
     inkscape:showpageshadow="2"
     inkscape:pageopacity="0.0"
     inkscape:pagecheckerboard="0"
     inkscape:deskcolor="#d1d1d1"
     inkscape:zoom="6.75"
     inkscape:cx="17.555556"
     inkscape:cy="36.962963"
     inkscape:window-width="1720"
     inkscape:window-height="845"
     inkscape:window-x="177"
     inkscape:window-y="120"
     inkscape:window-maximized="0"
     inkscape:current-layer="svg2" />
  <defs
     id="materia">
    <style
       id="current-color-scheme"
       type="text/css">&#10;   .ColorScheme-Background {color:#181818; } .ColorScheme-ButtonBackground { color:#343434; } .ColorScheme-Highlight { color:#4285f4; } .ColorScheme-Text { color:#dfdfdf; } .ColorScheme-ViewBackground { color:#242424; } .ColorScheme-NegativeText { color:#f44336; } .ColorScheme-PositiveText { color:#4caf50; } .ColorScheme-NeutralText { color:#ff9800; }&#10;  </style>
  </defs>
  <g
     id="22-22-material-you"
     transform="translate(27,5.0000005)">
    <rect
       style="opacity:0.001"
       width="22"
       height="22"
       x="5"
       y="5"
       id="rect1" />
    <path
       style="fill:currentColor;opacity:1"
       d="m 20.888889,16 a 1.3333333,1.3333333 0 0 1 -1.333334,-1.333333 1.3333333,1.3333333 0 0 1 1.333334,-1.333334 1.3333333,1.3333333 0 0 1 1.333333,1.333334 A 1.3333333,1.3333333 0 0 1 20.888889,16 M 16,8 a 8,8 0 0 0 -8,8 8,8 0 0 0 8,8 1.3333333,1.3333333 0 0 0 1.333333,-1.333333 c 0,-0.346667 -0.133333,-0.657778 -0.346666,-0.888889 -0.204445,-0.24 -0.337778,-0.551111 -0.337778,-0.888889 a 1.3333333,1.3333333 0 0 1 1.333333,-1.333334 h 1.573333 A 4.4444444,4.4444444 0 0 0 24,15.111111 C 24,11.182222 20.417778,8 16,8 Z m 2.222222,4.444445 a 1.3333333,1.3333333 0 0 1 -1.333333,-1.333334 1.3333333,1.3333333 0 0 1 1.333333,-1.333333 1.3333333,1.3333333 0 0 1 1.333333,1.333333 1.3333333,1.3333333 0 0 1 -1.333333,1.333334 m -4.444444,0 a 1.3333333,1.3333333 0 0 1 -1.333333,-1.333334 1.3333333,1.3333333 0 0 1 1.333333,-1.333333 1.3333333,1.3333333 0 0 1 1.333333,1.333333 1.3333333,1.3333333 0 0 1 -1.333333,1.333334 M 11.111111,16 A 1.3333333,1.3333333 0 0 1 9.777778,14.666667 1.3333333,1.3333333 0 0 1 11.111111,13.333333 1.3333333,1.3333333 0 0 1 12.444445,14.666667 1.3333333,1.3333333 0 0 1 11.111111,16"
       id="path7"
       class="ColorScheme-Text" />
  </g>
  <g
     id="material-you">
    <rect
       style="opacity:0.001"
       width="32"
       height="32"
       x="0"
       y="0"
       id="rect2" />
    <path
       d="m 23.333333,16 a 2,2 0 0 1 -2,-2 2,2 0 0 1 2,-2 2,2 0 0 1 2,2 2,2 0 0 1 -2,2 m -4,-5.333333 a 2,2 0 0 1 -2,-2 2,2 0 0 1 2,-2 2,2 0 0 1 2,2 2,2 0 0 1 -2,2 m -6.666666,0 a 2,2 0 0 1 -2,-2 2,2 0 0 1 2,-2 2,2 0 0 1 2,2 2,2 0 0 1 -2,2 M 8.6666667,16 a 2,2 0 0 1 -2,-2 2,2 0 0 1 2,-2 2,2 0 0 1 2.0000003,2 2,2 0 0 1 -2.0000003,2 M 16,4 A 12,12 0 0 0 4,16 12,12 0 0 0 16,28 2,2 0 0 0 18,26 c 0,-0.52 -0.2,-0.986667 -0.52,-1.333333 -0.306667,-0.36 -0.506667,-0.826667 -0.506667,-1.333334 a 2,2 0 0 1 2,-2 h 2.36 A 6.6666667,6.6666667 0 0 0 28,14.666667 C 28,8.773333 22.626667,4 16,4 Z"
       id="path2"
       style="fill:currentColor;opacity:1"
       class="ColorScheme-Text" />
  </g>
</svg>
